<svg width="139" height="25" viewBox="0 0 139 25" fill="none" xmlns="http://www.w3.org/2000/svg">
<path fill-rule="evenodd" clip-rule="evenodd" d="M17.1068 9.91126C18.1652 8.86919 18.8231 7.40868 18.8231 5.79347C18.8231 2.62396 16.2906 0.0756836 13.1673 0.0756836H2.90137V20.1468L16.883 10.1389V15.1168L4.94625 23.6602H13.9619C13.9619 23.6602 16.9845 21.5641 18.0029 20.8354C19.597 19.6851 20.6586 17.7869 20.6586 15.6403C20.6586 13.1168 19.2084 10.9357 17.1068 9.91126V9.91126Z" fill="white"/>
<path fill-rule="evenodd" clip-rule="evenodd" d="M115.909 13.8389V17.0453L120.845 17.0381C119.912 18.9699 117.956 20.2998 115.693 20.2998C112.526 20.2998 109.959 17.6946 109.959 14.4826C109.959 11.269 112.526 8.66381 115.693 8.66381C118.151 8.66381 120.235 10.2333 121.063 12.4385L123.983 9.81089C122.35 6.86423 119.258 4.87146 115.693 4.87146C110.455 4.87146 106.209 9.17362 106.209 14.4826C106.209 19.79 110.455 24.0921 115.693 24.0921C120.931 24.0921 125.176 19.79 125.176 14.4826C125.176 14.2606 125.166 14.061 125.154 13.8365L115.909 13.8389Z" fill="white"/>
<path fill-rule="evenodd" clip-rule="evenodd" d="M99.7507 5.18152V15.7874L86.6077 5.18152L86.5989 23.6599H90.448V13.05L103.609 23.6719L103.599 5.18152H99.7507Z" fill="white"/>
<path fill-rule="evenodd" clip-rule="evenodd" d="M73.2895 5.18127V15.7872L60.1473 5.18127L60.1377 23.6597H63.9868V13.0497L77.1474 23.6717L77.1387 5.18127H73.2895Z" fill="white"/>
<path fill-rule="evenodd" clip-rule="evenodd" d="M79.9143 23.6597H83.7642V5.18127H79.9239L79.9143 23.6597Z" fill="white"/>
<path fill-rule="evenodd" clip-rule="evenodd" d="M33.6177 16.7162C33.6177 18.5944 31.9094 20.115 30.0596 20.115C28.2089 20.115 26.5006 18.5944 26.5006 16.7162L26.5022 5.18127H22.6627L22.6531 16.693C22.6531 20.7266 26.0841 23.9947 30.0596 23.9947C34.035 23.9947 37.4645 20.7218 37.4645 16.6882V5.18127H33.6249L33.6177 16.7162Z" fill="white"/>
<path fill-rule="evenodd" clip-rule="evenodd" d="M53.4835 5.18152V15.7874L40.3413 5.18152L40.3325 23.6599H44.1817V13.05L57.3431 23.6719L57.3335 5.18152H53.4835Z" fill="white"/>
<path fill-rule="evenodd" clip-rule="evenodd" d="M130.345 10.4431C130.345 9.12684 131.324 8.48075 132.392 8.48075C133.496 8.48075 134.556 8.95289 135.407 9.89637L137.568 7.13968C136.275 5.77216 134.547 4.91846 132.189 4.91846C129.183 4.91846 126.745 7.39138 126.745 10.4431C126.745 15.6558 134.526 15.7304 134.526 18.6338C134.526 20.0069 133.497 20.7852 132.46 20.7852C130.678 20.7852 129.396 19.8041 128.587 18.9833L126.472 21.6943C127.765 23.0618 129.902 24.1335 132.398 24.1335C135.404 24.1335 138.006 21.6606 138.006 18.6105C138.006 12.9601 130.345 13.3384 130.345 10.4431V10.4431Z" fill="white"/>
<path fill-rule="evenodd" clip-rule="evenodd" d="M8.31905 4.92676L0.570068 10.4293V15.4031L15.3231 4.92676H8.31905Z" fill="#DA291C"/>
</svg>
